<?xml version="1.0" encoding="UTF-8"?>
<svg width="65px" height="50px" viewBox="0 0 65 50" version="1.1" xmlns="http://www.w3.org/2000/svg" xmlns:xlink="http://www.w3.org/1999/xlink">
    <!-- Generator: Sketch 41.2 (35397) - http://www.bohemiancoding.com/sketch -->
    <title>Group</title>
    <desc>Created with Sketch.</desc>
    <defs></defs>
    <g id="Page-1" stroke="none" stroke-width="1" fill="none" fill-rule="evenodd">
        <g id="noun_703375_cc" transform="translate(-17.000000, -6.000000)" fill="#4990E2">
            <g id="Group" transform="translate(10.000000, 0.000000)">
                <g id="Shape">
                    <g transform="translate(41.056229, 31.489625) rotate(249.000000) translate(-41.056229, -31.489625) translate(21.056229, -4.010375)">
                        <path d="M11.1739008,50.4069089 L17.4391627,47.07561 L17.4391627,47.07561 L26.2989242,48.637825 L20.0336622,51.9691239 L11.1739008,50.4069089 Z M11.6824927,52.5174937 C12.6524753,53.4221614 13.664002,54.1939429 14.7095651,54.7999965 L14.7095651,54.7999965 L17.1794215,53.4867506 L11.6824927,52.5174937 Z M27.2790278,53.2466773 C28.5480267,52.1888119 29.7525783,50.8987387 30.876999,49.4450631 L30.876999,49.4450631 L29.4824408,49.1991649 L23.2171789,52.5304637 L27.2790278,53.2466773 Z M24.9718875,54.8607726 C23.3507518,55.7810419 21.6487551,56.3019838 19.8936989,56.3019838 C18.9120661,56.3019838 17.9470322,56.1390147 17.0034617,55.8343558 L17.0034617,55.8343558 L20.3629382,54.0480904 L24.9718875,54.8607726 Z M20.2934034,45.5579833 L27.7469197,41.5948784 L27.7469197,41.5948784 L34.9387762,42.8629968 C34.6636861,43.415739 34.3787204,43.961516 34.0843573,44.4982368 L29.1531649,47.1201983 L20.2934034,45.5579833 L20.2934034,45.5579833 Z M6.63505237,43.1496475 L14.0885686,39.1865426 L14.0885686,39.1865426 L24.563403,41.0335385 L17.1098868,44.9966434 L6.63505237,43.1496475 L6.63505237,43.1496475 Z M6.01741181,45.0616472 C6.89159092,46.6015516 7.843656,48.0588171 8.8618885,49.3821819 L8.8618885,49.3821819 L14.2556461,46.5142701 L6.01741181,45.0616472 L6.01741181,45.0616472 Z M30.6011604,40.0772517 L37.6329568,36.3383793 C37.110948,37.8976783 36.5030155,39.4644996 35.8186702,40.9972395 L30.6011604,40.0772517 L30.6011604,40.0772517 Z M16.9428093,37.6689159 L26.1675602,32.7640289 L36.6423946,34.6110248 L27.4176437,39.5159118 L16.9428093,37.6689159 L16.9428093,37.6689159 Z M2.42671798,37.1302438 C3.01169834,38.7877142 3.69177883,40.4457301 4.45556668,42.0544549 L4.45556668,42.0544549 L10.905052,38.6252027 L2.42671677,37.1302435 L2.42671798,37.1302438 Z M2.03105132,35.0395707 L11.2558021,30.1346836 L22.9840435,32.202689 L13.7592927,37.107576 L2.03105132,35.0395707 L2.03105132,35.0395707 Z M38.6726329,26.1149638 C39.0361897,26.1843845 39.4013075,26.2628964 39.747057,26.3423585 L39.747057,26.3423585 C39.6183097,28.3530917 39.2370744,30.6028905 38.6376023,32.9419274 L38.6376023,32.9419274 L29.0218009,31.2464022 L38.6726329,26.1149638 L38.6726329,26.1149638 Z M34.1017039,26.2913242 C33.0425916,26.5633956 31.9834793,26.8677572 30.924367,26.8677572 C29.2846512,26.8677572 27.6449354,25.8726551 26.0052196,25.8726551 C24.355948,25.8726551 22.7066764,26.8677572 21.0574048,26.8677572 C20.1605442,26.8677572 19.2636837,26.607845 18.3668232,26.3536867 L14.1100428,28.6170569 L25.8382842,30.6850623 L34.1017039,26.2913242 Z M0.220403909,28.1888452 C0.424927968,29.7777186 0.763135256,31.4739793 1.22099266,33.2162408 L1.22099266,33.2162408 L8.07228548,29.5733438 L0.220403909,28.1888452 L0.220403909,28.1888452 Z M0.47518381,26.2128634 C1.64595812,26.0263109 2.8789443,25.8726551 3.76410422,25.8726551 C5.82492443,25.8726551 7.88574464,26.8677572 9.94656484,26.8677572 C11.6041944,26.8677572 13.261824,26.1477545 14.9194536,25.9326399 L10.9265262,28.0557171 L0.47518381,26.2128634 L0.47518381,26.2128634 Z M39.6514667,22.397349 C38.4624841,11.9618001 30.0700271,0.415435699 19.8936989,0.415435699 C9.76370125,0.415435699 1.40136863,11.8569036 0.15261805,22.2547491 C1.29704782,22.0583041 2.52156566,21.8922466 3.39094092,21.8922466 C5.46261267,21.8922466 7.53428441,22.8873487 9.60595616,22.8873487 C11.5545358,22.8873487 13.5031155,21.8922466 15.4516952,21.8922466 C17.2360442,21.8922466 19.0203931,22.8873487 20.8047421,22.8873487 C22.4366837,22.8873487 24.0686252,21.8922466 25.7005668,21.8922466 C27.2882924,21.8922466 28.876018,22.8873487 30.4637436,22.8873487 C32.3080189,22.8873487 34.1522943,21.8922466 35.9965697,21.8922466 C36.9712288,21.8922466 38.4381486,22.146082 39.6514667,22.397349 L39.6514667,22.397349 Z M21.3863521,14.9265318 C22.7603014,14.9265318 23.8741074,13.8127258 23.8741074,12.4387765 C23.8741074,11.0648272 22.7603014,9.95102119 21.3863521,9.95102119 C20.0124028,9.95102119 18.8985968,11.0648272 18.8985968,12.4387765 C18.8985968,13.8127258 20.0124028,14.9265318 21.3863521,14.9265318 Z"></path>
                        <path d="M27.602876,54.5508798 C29.7896734,57.4039115 36.7271988,66.8573631 33.9978521,68.5555933 C31.193979,70.3001945 27.8348653,67.0428464 26.9678514,65.4242523 C27.8348653,67.0428464 27.867471,70.1029251 25.2620342,70.1029251 C23.0060146,70.1029251 21.4275806,66.9403532 21.0560534,64.560519 C20.7496231,66.9403532 19.414726,67.9922464 17.5164821,67.3138006 C15.5511212,66.6113667 14.5968898,64.560519 14.5968899,62.6710451 C13.5470426,63.8091257 12.6528311,65.4242523 10.3077316,63.785178 C8.57218595,62.5721427 10.3077317,58.8881085 10.3077317,58.8881085 L12.4266144,54.7346582 C14.7477654,56.5978001 17.267991,57.7159229 19.9020424,57.7159229 C22.6215966,57.7159229 25.2198154,56.5240321 27.602876,54.5508798 Z"></path>
                    </g>
                </g>
            </g>
        </g>
    </g>
</svg>