<?xml version="1.0" encoding="UTF-8"?>
<svg width="28px" height="70px" viewBox="0 0 28 70" version="1.1" xmlns="http://www.w3.org/2000/svg" xmlns:xlink="http://www.w3.org/1999/xlink">
    <!-- Generator: Sketch 41.2 (35397) - http://www.bohemiancoding.com/sketch -->
    <title>Group</title>
    <desc>Created with Sketch.</desc>
    <defs></defs>
    <g id="Page-1" stroke="none" stroke-width="1" fill="none" fill-rule="evenodd">
        <g id="noun_703374_cc" transform="translate(-36.000000, 0.000000)" fill="#417505">
            <g id="Group" transform="translate(36.000000, 0.000000)">
                <g id="Shape">
                    <path d="M18.4124872,15.4851498 L14.4124872,15.4851498 L14.4124872,15.4851498 L14.4124872,19.4851497 L17.0914415,19.4851498 L17.0914423,19.4851495 C17.5393653,18.656506 17.9801726,17.8306478 18.4124872,17.0108007 L18.4124872,15.4851498 Z M18.4124872,10.4851497 L14.4124872,10.4851495 L14.4124872,15.4851498 L14.4124872,14.4851498 L18.4124872,14.4851498 L18.4124872,10.4851497 Z M19.4124872,10.4851497 L21.7407293,10.4851498 L21.740729,10.4851492 C21.102776,11.7809512 20.429452,13.1195553 19.7275059,14.4851498 L19.7275059,14.4851498 L19.4124872,14.4851498 L19.4124872,10.4851497 Z M18.4124872,5.4851498 L14.4124872,5.4851498 L14.4124872,9.4851498 L18.4124872,9.4851498 L18.4124872,5.4851498 Z M19.4124872,5.4851498 L20.0876478,5.4851498 L20.0876478,5.4851498 C20.7425638,6.647346 21.35236,7.988977 21.9080904,9.4851498 L21.9080904,9.4851498 L19.4124872,9.4851498 L19.4124872,5.4851498 Z M18.4124872,3.0278271 C17.1753261,1.5626145 15.826998,0.6832315 14.4124872,0.5148519 L14.4124872,0.5148519 L14.4124872,4.4851498 L18.4124872,4.4851498 L18.4124872,3.0278271 Z M19.4124872,4.3752771 C19.4364591,4.4116712 19.4603793,4.4482958 19.4842475,4.4851498 L19.4842475,4.4851498 L19.4124872,4.4851498 L19.4124872,4.3752756 L19.4124872,4.3752771 Z M13.4124872,15.4851498 L9.4124872,15.4851498 L9.4124872,15.4851498 L9.4124872,17.0108007 C9.8448018,17.8306478 10.285609,18.656506 10.733532,19.4851495 L13.4124872,19.4851496 L13.4124872,15.4851498 L13.4124872,15.4851498 Z M13.4124872,10.4851495 L9.4124872,10.4851494 L9.4124872,10.4851494 L9.4124872,14.4851498 L13.4124872,14.4851498 L13.4124872,15.4851498 L13.4124872,10.4851495 Z M13.4124872,5.4851498 L9.4124872,5.4851498 L9.4124872,5.4851498 L9.4124872,9.4851498 L13.4124872,9.4851498 L13.4124872,5.4851498 L13.4124872,5.4851498 Z M13.4124872,0.5148519 C11.9979764,0.6832315 10.6496483,1.5626145 9.4124872,3.0278271 L9.4124872,3.0278271 L9.4124872,4.4851498 L13.4124872,4.4851498 L13.4124872,0.5148519 L13.4124872,0.5148519 Z M14.4124872,24.318833 C15.1365785,23.0452561 15.850141,21.7634385 16.5481514,20.4851497 L16.5481508,20.4851498 L14.4124872,20.4851497 L14.4124872,24.3188331 L14.4124872,24.318833 Z M13.4124872,24.318833 C12.6883959,23.0452561 11.9748333,21.7634385 11.276823,20.4851497 L13.4124872,20.4851497 L13.4124872,24.3188331 L13.4124872,24.318833 Z M8.4124872,10.4851493 L6.0842454,10.4851492 C6.7221984,11.7809512 7.3955224,13.1195553 8.0974685,14.4851498 L8.4124872,14.4851498 L8.4124872,10.4851493 L8.4124872,10.4851493 Z M8.4124872,5.4851498 L7.7373266,5.4851498 C7.0824106,6.647346 6.4726144,7.988977 5.916884,9.4851498 L8.4124872,9.4851498 L8.4124872,5.4851498 L8.4124872,5.4851498 Z M8.4124872,4.3752771 C8.3885152,4.4116712 8.364595,4.4482958 8.3407269,4.4851498 L8.4124872,4.4851498 L8.4124872,4.3752754 L8.4124872,4.3752771 Z"></path>
                    <path d="M8.6838749,66.6077852 C8.6838752,68.4038493 8.6838752,69.4851481 8.6838752,69.4851481 L19.1585218,69.4851481 C19.1585218,69.4851481 19.1585218,67.9775798 19.1585215,66.5876685 C22.5896604,62.6180394 25.2970614,54.8722806 26.5875128,45.2503059 C19.526745,38.621909 9.0067255,19.1799742 3.8695832,7.7586697 C1.7202662,14.3117784 0.4124872,22.979887 0.4124872,32.4851498 C0.4124872,47.8386572 3.8245837,61.0079646 8.6838749,66.6077852 Z"></path>
                    <path d="M9.6838749,66.6077852 C9.6838752,68.4038493 9.6838752,69.4851481 9.6838752,69.4851481 L20.1585218,69.4851481 C20.1585218,69.4851481 20.1585218,67.9775798 20.1585215,66.5876685 C23.5896604,62.6180394 26.2970614,54.8722806 27.5875128,45.2503059 C20.526745,38.621909 10.0067255,19.1799742 4.8695832,7.7586697 C2.7202662,14.3117784 1.4124872,22.979887 1.4124872,32.4851498 C1.4124872,47.8386572 4.8245837,61.0079646 9.6838749,66.6077852 Z" transform="translate(14.500000, 38.621909) scale(-1, 1) translate(-14.500000, -38.621909) "></path>
                </g>
            </g>
        </g>
    </g>
</svg>