<?xml version="1.0" encoding="UTF-8"?>
<svg width="59px" height="63px" viewBox="0 0 59 63" version="1.1" xmlns="http://www.w3.org/2000/svg" xmlns:xlink="http://www.w3.org/1999/xlink">
    <!-- Generator: Sketch 41.2 (35397) - http://www.bohemiancoding.com/sketch -->
    <title>Group</title>
    <desc>Created with Sketch.</desc>
    <defs></defs>
    <g id="Page-1" stroke="none" stroke-width="1" fill="none" fill-rule="evenodd">
        <g id="noun_703372_cc" transform="translate(-18.000000, -6.000000)" fill="#F6A623">
            <g id="Group" transform="translate(13.000000, 0.000000)">
                <g id="Shape">
                    <g transform="translate(37.237490, 39.321967) rotate(-43.000000) translate(-37.237490, -39.321967) translate(22.737490, 0.321967)">
                        <path d="M25.3872987,45.8755065 C26.331817,39.0971571 26.853955,32.5876379 26.853955,27.9728698 L17.9026367,27.9728698 L17.9026367,24.6161255 L26.6876034,24.6161255 L26.6876034,24.6161255 C25.6956397,15.2084909 20.386739,12.3080627 13.9864349,12.3080627 C6.87989978,12.3080627 1.11891479,15.922682 1.11891479,27.9728698 C1.11891479,29.0033423 1.14494984,30.1282915 1.19590921,31.3296142 L1.19590921,31.3296142 L10.0702331,31.3296142 L10.0702331,34.6863586 L1.38902386,34.6863586 C1.86604537,41.3818888 2.95687658,49.6246956 4.5173268,57.0646608 L4.51732547,57.0646545 L10.0702331,57.0646545 L10.0702331,60.4213988 L5.26760764,60.4213988 C7.50761956,69.8217322 10.5236474,77.2051207 13.9864349,77.2051207 C18.7529798,77.2051207 22.6730195,63.2153235 24.8878023,49.2322509 L16.7837219,49.2322509 L16.7837219,45.8755065 L25.3872987,45.8755065 Z"></path>
                        <path d="M16.009739,11.2942969 L19.0215515,0 C19.0215515,0 16.027216,2.26050291 14.5458923,2.26050291 C13.0434432,2.26050291 10.0702331,0 10.0702331,0 L13.0596749,11.2104066 C13.3657593,11.1960986 13.6748034,11.1891479 13.9864349,11.1891479 C14.6748334,11.1891479 15.3506059,11.2227017 16.009739,11.2942969 Z M11.977838,11.2936784 L7.18607767,1.04974674 C7.18607767,1.04974674 6.77938732,4.88076606 5.64237898,5.83482933 C4.49368476,6.79869823 0.328969993,6.80354327 0.328969993,6.80354327 L8.12167443,12.2739665 C9.31152739,11.7561199 10.6088869,11.4424283 11.977838,11.2936784 Z M20.5247871,12.5865802 L28.7628146,6.80354327 C28.7628146,6.80354327 25.1442712,6.52000419 23.9787815,5.5420422 C22.8585686,4.60207201 21.905707,1.04974674 21.905707,1.04974674 L17.0449508,11.4411792 C18.285008,11.660509 19.4546699,12.0314445 20.5247871,12.5865802 Z"></path>
                    </g>
                </g>
            </g>
        </g>
    </g>
</svg>